# xmcd
#
# Track frame offsets: 
#        150
#        12430
#        23420
#        37578
#        51250
#        64720
#        76925
#        89725
#        101945
#        114183
#        125905
#        140143
#        151243
#        164135
#        174688
#        190088
#        200655
#        218580
#        232033
#        243118
#        256580
#        270645
#        284393
#        310840
#
# Disc length: 4356 seconds
#
# Revision: 0
# Processed by: cddbd v1.5.2PL0 Copyright (c) Steve Scherf et al.
# Submitted via: ExactAudioCopy v0.99pb1
#
DISCID=51110218
DTITLE=Smokey Robinson And The Miracles - The 35th Anniversary Collect
DTITLE=ion [Disc 3]
DYEAR=1994
DGENRE=R&B
TTITLE0=My Business, Your Pleasure
TTITLE1=Save Me
TTITLE2=It's A Good Feeling
TTITLE3=The Love I Saw In You Was Just A Mirage
TTITLE4=Come Spy With Me
TTITLE5=My Love For You
TTITLE6=More Love
TTITLE7=After You Put Back The Pieces (I'll Still Have A Broken Heart)
TTITLE8=I Second That Emotion
TTITLE9=You Must Be Love
TTITLE10=I Care About Detroit
TTITLE11=If You Can Want
TTITLE12=When The Words From Your Heart Get Cought Up In Your Throat
TTITLE13=Yester Love
TTITLE14=You Only Build Me Up To Tear Me Down
TTITLE15=Special Occasion
TTITLE16=Baby, Baby Don't Cry
TTITLE17=Doggone Right
TTITLE18=The Composer
TTITLE19=Here I Go Again
TTITLE20=Once I Got To Know You (Couldn't Help But Love You)
TTITLE21=Abraham, Martin, And John
TTITLE22=What Love Has Joined Together
TTITLE23=Who's Gonna Take The Blame
EXTD=
EXTT0=
EXTT1=
EXTT2=
EXTT3=
EXTT4=
EXTT5=
EXTT6=
EXTT7=
EXTT8=
EXTT9=
EXTT10=
EXTT11=
EXTT12=
EXTT13=
EXTT14=
EXTT15=
EXTT16=
EXTT17=
EXTT18=
EXTT19=
EXTT20=
EXTT21=
EXTT22=
EXTT23=
PLAYORDER=
